<svg width="599" height="97" viewBox="0 0 599 97" fill="none" xmlns="http://www.w3.org/2000/svg">
<path d="M40.368 96.536C35.6747 96.536 31.9627 95.1707 29.232 92.44C26.5867 89.7093 24.24 84.888 22.192 77.976L0.944 5.39999H16.048L36.528 77.72C37.04 79.4267 37.552 80.664 38.064 81.432C38.6613 82.2 39.4293 82.584 40.368 82.584C41.2213 82.584 41.9467 82.2 42.544 81.432C43.1413 80.664 43.6533 79.4267 44.08 77.72L64.56 5.39999H79.664L58.416 77.976C56.368 84.888 53.9787 89.7093 51.248 92.44C48.6027 95.1707 44.976 96.536 40.368 96.536ZM108.28 96.536C99.7467 96.536 93.1333 94.488 88.44 90.392C83.7467 86.296 81.4 80.4933 81.4 72.984V56.856C81.4 49.3467 83.7467 43.544 88.44 39.448C93.1333 35.352 99.7467 33.304 108.28 33.304C116.899 33.304 123.555 35.352 128.248 39.448C132.941 43.544 135.288 49.3467 135.288 56.856V72.984C135.288 80.4933 132.941 86.296 128.248 90.392C123.555 94.488 116.899 96.536 108.28 96.536ZM108.28 85.656C112.461 85.656 115.661 84.5893 117.88 82.456C120.184 80.2373 121.336 77.08 121.336 72.984V56.856C121.336 52.76 120.184 49.6453 117.88 47.512C115.661 45.2933 112.461 44.184 108.28 44.184C104.184 44.184 100.984 45.2933 98.68 47.512C96.4613 49.6453 95.352 52.76 95.352 56.856V72.984C95.352 77.08 96.4613 80.2373 98.68 82.456C100.984 84.5893 104.184 85.656 108.28 85.656ZM161.093 96.536C157.338 94.5733 154.693 92.312 153.157 89.752C151.706 87.192 150.981 83.6933 150.981 79.256V17.56C150.981 15.4267 150.597 13.72 149.829 12.44C149.061 11.16 147.653 9.752 145.605 8.216L154.949 0.0239944C158.704 1.98666 161.306 4.248 162.757 6.808C164.208 9.28266 164.933 12.7813 164.933 17.304V79C164.933 81.048 165.317 82.712 166.085 83.992C166.938 85.272 168.389 86.7227 170.437 88.344L161.093 96.536ZM198.043 45.72V74.136C198.043 77.8053 198.683 80.4507 199.963 82.072C201.243 83.6933 203.334 84.504 206.235 84.504H215.451V95.256H206.235C198.214 95.256 192.496 93.6773 189.083 90.52C185.755 87.2773 184.091 81.816 184.091 74.136V23.96C184.091 21.912 183.707 20.248 182.939 18.968C182.171 17.688 180.763 16.2373 178.715 14.616L188.059 6.424C191.814 8.38666 194.416 10.648 195.867 13.208C197.318 15.6827 198.043 19.1813 198.043 23.704V34.84H215.451V45.72H198.043ZM336.176 95H320.176L314.16 74.136C312.965 69.9547 311.728 66.712 310.448 64.408C309.168 62.0187 307.376 60.2267 305.072 59.032C302.853 57.8373 299.824 57.24 295.984 57.24H280.368V95H265.264V5.39999H302.256C312.325 5.39999 319.835 7.53333 324.784 11.8C329.733 16.0667 332.208 22.5093 332.208 31.128C332.208 37.1867 330.672 42.0507 327.6 45.72C324.528 49.3893 320.219 51.6933 314.672 52.632C318.853 54.0827 322.053 56.5573 324.272 60.056C326.491 63.5547 328.453 68.248 330.16 74.136L336.176 95ZM302.256 45.336C306.693 45.336 310.277 44.1413 313.008 41.752C315.739 39.3627 317.104 35.9067 317.104 31.384C317.104 26.776 315.739 23.2773 313.008 20.888C310.277 18.4987 306.693 17.304 302.256 17.304H280.368V45.336H302.256ZM374.292 85.784C377.62 85.784 380.393 85.3573 382.612 84.504C384.916 83.5653 387.22 81.9867 389.524 79.768L397.844 87.448C395.284 90.4347 392.084 92.696 388.244 94.232C384.404 95.768 379.668 96.536 374.036 96.536C364.82 96.536 357.993 94.6587 353.556 90.904C349.119 87.064 346.9 81.2187 346.9 73.368V54.68C346.9 48.1093 349.204 42.9467 353.812 39.192C358.505 35.352 364.905 33.432 373.012 33.432C381.289 33.432 387.732 35.48 392.34 39.576C396.948 43.5867 399.252 49.3893 399.252 56.984C399.252 60.4827 398.911 63.2133 398.228 65.176C397.545 67.1387 396.308 68.5893 394.516 69.528C392.724 70.3813 390.079 70.808 386.58 70.808H360.724V73.368C360.724 81.6453 365.247 85.784 374.292 85.784ZM372.884 44.056C369.129 44.056 366.143 45.1227 363.924 47.256C361.791 49.3893 360.724 52.2053 360.724 55.704V61.208H379.028C381.417 61.208 383.081 60.824 384.02 60.056C384.959 59.2027 385.428 57.752 385.428 55.704C385.428 51.9493 384.319 49.0907 382.1 47.128C379.967 45.08 376.895 44.056 372.884 44.056ZM462.133 79C462.133 81.048 462.517 82.712 463.285 83.992C464.053 85.272 465.461 86.7227 467.509 88.344L458.165 96.536C453.386 94.1467 450.357 90.9893 449.077 87.064C447.114 89.7947 444.426 92.056 441.013 93.848C437.6 95.64 433.546 96.536 428.853 96.536C422.709 96.536 417.845 95 414.261 91.928C410.677 88.7707 408.885 84.3333 408.885 78.616C408.885 72.0453 411.146 67.3947 415.669 64.664C420.192 61.9333 425.952 60.184 432.949 59.416L440.373 58.648C443.104 58.392 445.024 57.9227 446.133 57.24C447.328 56.472 448.01 55.3627 448.181 53.912C447.669 46.744 443.36 43.16 435.253 43.16C432.096 43.16 429.365 43.7147 427.061 44.824C424.842 45.848 422.709 47.5973 420.661 50.072L411.061 43.288C413.365 40.1307 416.437 37.6987 420.277 35.992C424.117 34.2 429.109 33.304 435.253 33.304C444.213 33.304 450.912 35.1813 455.349 38.936C459.872 42.6053 462.133 47.9813 462.133 55.064V79ZM432.309 86.296C437.258 86.296 441.141 85.0587 443.957 82.584C446.773 80.1093 448.181 76.9947 448.181 73.24V66.328C446.56 67.0107 443.744 67.5653 439.733 67.992L433.973 68.632C426.122 69.4853 422.197 72.6 422.197 77.976C422.197 80.7067 423.05 82.7973 424.757 84.248C426.549 85.6133 429.066 86.296 432.309 86.296ZM488.468 96.536C484.713 94.5733 482.068 92.312 480.532 89.752C479.081 87.192 478.356 83.6933 478.356 79.256V17.56C478.356 15.4267 477.972 13.72 477.204 12.44C476.436 11.16 475.028 9.752 472.98 8.216L482.324 0.0239944C486.079 1.98666 488.681 4.248 490.132 6.808C491.583 9.28266 492.308 12.7813 492.308 17.304V79C492.308 81.048 492.692 82.712 493.46 83.992C494.313 85.272 495.764 86.7227 497.812 88.344L488.468 96.536ZM579.818 33.304C585.791 33.304 590.399 35.1387 593.642 38.808C596.97 42.392 598.634 47.4693 598.634 54.04V95H584.682V55.448C584.682 51.9493 583.871 49.2187 582.25 47.256C580.714 45.208 578.538 44.184 575.722 44.184C572.394 44.184 569.578 45.3787 567.274 47.768C565.055 50.1573 563.391 53.272 562.282 57.112V95H548.33V55.448C548.33 51.9493 547.562 49.2187 546.026 47.256C544.49 45.208 542.314 44.184 539.498 44.184C536.17 44.184 533.354 45.3787 531.05 47.768C528.746 50.1573 527.082 53.272 526.058 57.112V95H512.106V50.84C512.106 48.792 511.722 47.128 510.954 45.848C510.186 44.568 508.778 43.1173 506.73 41.496L516.074 33.304C521.109 35.7787 524.181 39.2773 525.29 43.8C529.557 36.8027 535.658 33.304 543.594 33.304C548.031 33.304 551.743 34.328 554.73 36.376C557.717 38.424 559.765 41.4107 560.874 45.336C562.41 41.6667 564.799 38.7653 568.042 36.632C571.285 34.4133 575.21 33.304 579.818 33.304Z" fill="black"/>
</svg>
