<svg width="302" height="60" viewBox="0 0 302 60" fill="none" xmlns="http://www.w3.org/2000/svg">
<path d="M21.184 56.768C18.8373 56.768 16.9813 56.0853 15.616 54.72C14.2933 53.3547 13.12 50.944 12.096 47.488L1.472 11.2H9.024L19.264 47.36C19.52 48.2133 19.776 48.832 20.032 49.216C20.3307 49.6 20.7147 49.792 21.184 49.792C21.6107 49.792 21.9733 49.6 22.272 49.216C22.5707 48.832 22.8267 48.2133 23.04 47.36L33.28 11.2H40.832L30.208 47.488C29.184 50.944 27.9893 53.3547 26.624 54.72C25.3013 56.0853 23.488 56.768 21.184 56.768ZM55.14 56.768C50.8733 56.768 47.5667 55.744 45.22 53.696C42.8733 51.648 41.7 48.7467 41.7 44.992V36.928C41.7 33.1733 42.8733 30.272 45.22 28.224C47.5667 26.176 50.8733 25.152 55.14 25.152C59.4493 25.152 62.7773 26.176 65.124 28.224C67.4707 30.272 68.644 33.1733 68.644 36.928V44.992C68.644 48.7467 67.4707 51.648 65.124 53.696C62.7773 55.744 59.4493 56.768 55.14 56.768ZM55.14 51.328C57.2307 51.328 58.8307 50.7947 59.94 49.728C61.092 48.6187 61.668 47.04 61.668 44.992V36.928C61.668 34.88 61.092 33.3227 59.94 32.256C58.8307 31.1467 57.2307 30.592 55.14 30.592C53.092 30.592 51.492 31.1467 50.34 32.256C49.2307 33.3227 48.676 34.88 48.676 36.928V44.992C48.676 47.04 49.2307 48.6187 50.34 49.728C51.492 50.7947 53.092 51.328 55.14 51.328ZM81.5465 56.768C79.6692 55.7867 78.3465 54.656 77.5785 53.376C76.8532 52.096 76.4905 50.3467 76.4905 48.128V17.28C76.4905 16.2133 76.2985 15.36 75.9145 14.72C75.5305 14.08 74.8265 13.376 73.8025 12.608L78.4745 8.512C80.3518 9.49333 81.6532 10.624 82.3785 11.904C83.1038 13.1413 83.4665 14.8907 83.4665 17.152V48C83.4665 49.024 83.6585 49.856 84.0425 50.496C84.4692 51.136 85.1945 51.8613 86.2185 52.672L81.5465 56.768ZM100.022 31.36V45.568C100.022 47.4027 100.342 48.7253 100.982 49.536C101.622 50.3467 102.667 50.752 104.118 50.752H108.726V56.128H104.118C100.107 56.128 97.2482 55.3387 95.5415 53.76C93.8775 52.1387 93.0455 49.408 93.0455 45.568V20.48C93.0455 19.456 92.8535 18.624 92.4695 17.984C92.0855 17.344 91.3815 16.6187 90.3575 15.808L95.0295 11.712C96.9068 12.6933 98.2082 13.824 98.9335 15.104C99.6588 16.3413 100.022 18.0907 100.022 20.352V25.92H108.726V31.36H100.022ZM169.088 56H161.088L158.08 45.568C157.483 43.4773 156.864 41.856 156.224 40.704C155.584 39.5093 154.688 38.6133 153.536 38.016C152.427 37.4187 150.912 37.12 148.992 37.12H141.184V56H133.632V11.2H152.128C157.163 11.2 160.917 12.2667 163.392 14.4C165.867 16.5333 167.104 19.7547 167.104 24.064C167.104 27.0933 166.336 29.5253 164.8 31.36C163.264 33.1947 161.109 34.3467 158.336 34.816C160.427 35.5413 162.027 36.7787 163.136 38.528C164.245 40.2773 165.227 42.624 166.08 45.568L169.088 56ZM152.128 31.168C154.347 31.168 156.139 30.5707 157.504 29.376C158.869 28.1813 159.552 26.4533 159.552 24.192C159.552 21.888 158.869 20.1387 157.504 18.944C156.139 17.7493 154.347 17.152 152.128 17.152H141.184V31.168H152.128ZM188.146 51.392C189.81 51.392 191.197 51.1787 192.306 50.752C193.458 50.2827 194.61 49.4933 195.762 48.384L199.922 52.224C198.642 53.7173 197.042 54.848 195.122 55.616C193.202 56.384 190.834 56.768 188.018 56.768C183.41 56.768 179.997 55.8293 177.778 53.952C175.559 52.032 174.45 49.1093 174.45 45.184V35.84C174.45 32.5547 175.602 29.9733 177.906 28.096C180.253 26.176 183.453 25.216 187.506 25.216C191.645 25.216 194.866 26.24 197.17 28.288C199.474 30.2933 200.626 33.1947 200.626 36.992C200.626 38.7413 200.455 40.1067 200.114 41.088C199.773 42.0693 199.154 42.7947 198.258 43.264C197.362 43.6907 196.039 43.904 194.29 43.904H181.362V45.184C181.362 49.3227 183.623 51.392 188.146 51.392ZM187.442 30.528C185.565 30.528 184.071 31.0613 182.962 32.128C181.895 33.1947 181.362 34.6027 181.362 36.352V39.104H190.514C191.709 39.104 192.541 38.912 193.01 38.528C193.479 38.1013 193.714 37.376 193.714 36.352C193.714 34.4747 193.159 33.0453 192.05 32.064C190.983 31.04 189.447 30.528 187.442 30.528ZM232.067 48C232.067 49.024 232.259 49.856 232.643 50.496C233.027 51.136 233.731 51.8613 234.755 52.672L230.083 56.768C227.693 55.5733 226.179 53.9947 225.539 52.032C224.557 53.3973 223.213 54.528 221.507 55.424C219.8 56.32 217.773 56.768 215.427 56.768C212.355 56.768 209.923 56 208.131 54.464C206.339 52.8853 205.443 50.6667 205.443 47.808C205.443 44.5227 206.573 42.1973 208.835 40.832C211.096 39.4667 213.976 38.592 217.475 38.208L221.187 37.824C222.552 37.696 223.512 37.4613 224.067 37.12C224.664 36.736 225.005 36.1813 225.091 35.456C224.835 31.872 222.68 30.08 218.627 30.08C217.048 30.08 215.683 30.3573 214.531 30.912C213.421 31.424 212.355 32.2987 211.331 33.536L206.531 30.144C207.683 28.5653 209.219 27.3493 211.139 26.496C213.059 25.6 215.555 25.152 218.627 25.152C223.107 25.152 226.456 26.0907 228.675 27.968C230.936 29.8027 232.067 32.4907 232.067 36.032V48ZM217.155 51.648C219.629 51.648 221.571 51.0293 222.979 49.792C224.387 48.5547 225.091 46.9973 225.091 45.12V41.664C224.28 42.0053 222.872 42.2827 220.867 42.496L217.987 42.816C214.061 43.2427 212.099 44.8 212.099 47.488C212.099 48.8533 212.525 49.8987 213.379 50.624C214.275 51.3067 215.533 51.648 217.155 51.648ZM245.234 56.768C243.357 55.7867 242.034 54.656 241.266 53.376C240.541 52.096 240.178 50.3467 240.178 48.128V17.28C240.178 16.2133 239.986 15.36 239.602 14.72C239.218 14.08 238.514 13.376 237.49 12.608L242.162 8.512C244.039 9.49333 245.341 10.624 246.066 11.904C246.791 13.1413 247.154 14.8907 247.154 17.152V48C247.154 49.024 247.346 49.856 247.73 50.496C248.157 51.136 248.882 51.8613 249.906 52.672L245.234 56.768ZM290.909 25.152C293.896 25.152 296.2 26.0693 297.821 27.904C299.485 29.696 300.317 32.2347 300.317 35.52V56H293.341V36.224C293.341 34.4747 292.936 33.1093 292.125 32.128C291.357 31.104 290.269 30.592 288.861 30.592C287.197 30.592 285.789 31.1893 284.637 32.384C283.528 33.5787 282.696 35.136 282.141 37.056V56H275.165V36.224C275.165 34.4747 274.781 33.1093 274.013 32.128C273.245 31.104 272.157 30.592 270.749 30.592C269.085 30.592 267.677 31.1893 266.525 32.384C265.373 33.5787 264.541 35.136 264.029 37.056V56H257.053V33.92C257.053 32.896 256.861 32.064 256.477 31.424C256.093 30.784 255.389 30.0587 254.365 29.248L259.037 25.152C261.554 26.3893 263.09 28.1387 263.645 30.4C265.778 26.9013 268.829 25.152 272.797 25.152C275.016 25.152 276.872 25.664 278.365 26.688C279.858 27.712 280.882 29.2053 281.437 31.168C282.205 29.3333 283.4 27.8827 285.021 26.816C286.642 25.7067 288.605 25.152 290.909 25.152Z" fill="black"/>
</svg>
